<svg width="170" height="26" viewBox="0 0 170 26" fill="none" xmlns="http://www.w3.org/2000/svg">
<g clip-path="url(#clip0_47_25)">
<mask id="mask0_47_25" style="mask-type:luminance" maskUnits="userSpaceOnUse" x="0" y="0" width="170" height="26">
<path d="M169.914 0H0V25.7922H169.914V0Z" fill="white"/>
</mask>
<g mask="url(#mask0_47_25)">
<path d="M34.4933 17.3879C34.5588 18.6195 35.4097 19.4165 36.5224 19.4165C37.5043 19.4165 38.2242 18.8369 38.2242 17.6777C38.2242 16.6634 37.6352 16.3011 36.8498 15.9389C36.326 15.7215 35.8025 15.5042 35.2787 15.3593C33.7734 14.8521 31.3517 13.7654 31.3517 10.4327C31.3517 8.1143 32.988 5.21631 36.5224 5.21631C39.2715 5.21631 41.3658 7.31737 41.4968 10.4327H37.8313C37.7659 9.78064 37.3733 9.05615 36.457 9.05615C35.4751 9.05615 35.0826 9.78064 35.0826 10.5052C35.0826 11.8817 36.5224 12.1715 37.4388 12.3889C39.2715 12.896 41.8896 13.7654 41.8896 17.3879C41.8896 20.6482 39.7295 23.2563 36.326 23.2563C32.7261 23.2563 30.7627 20.4308 30.7627 17.3879H34.4933Z" fill="#353535"/>
<path d="M58.8415 17.1706C57.7287 20.7931 55.0451 23.2564 51.249 23.2564C45.489 23.2564 42.7402 18.3298 42.7402 14.0553C42.7402 10.0705 45.3584 5.14392 51.1181 5.14392C54.9796 5.14392 57.8597 7.67967 58.8415 11.3746H54.6526C53.9323 9.78073 52.6234 9.05624 50.9871 9.05624C48.0417 9.05624 46.4054 11.4471 46.4054 14.2002C46.4054 17.0982 48.1726 19.4166 50.9871 19.4166C51.6416 19.4166 53.6053 19.2717 54.6526 17.1706H58.8415Z" fill="#353535"/>
<path d="M60.0195 0H63.685V7.02764C64.7977 5.50618 66.4995 5.21638 67.6775 5.21638C71.2119 5.21638 73.6991 8.04193 73.6991 12.8237V22.7493H70.0337V13.693C70.0337 9.85319 68.3974 9.05626 66.9575 9.05626C63.9469 9.05626 63.7504 12.2441 63.7504 13.693V22.7493H60.085L60.0195 0Z" fill="#353535"/>
<path d="M79.1973 16.0114C79.6554 18.1125 81.2262 19.4166 83.1898 19.4166C84.3681 19.4166 85.7425 19.0543 86.6588 17.8227H90.8478C88.8186 23.2564 84.1062 23.2564 83.3863 23.2564C77.8881 23.2564 75.27 18.2574 75.27 14.3451C75.27 10.4328 77.8881 5.14392 83.4517 5.14392C88.1642 5.14392 91.3713 9.12868 91.3713 14.2002C91.3713 14.7798 91.3713 15.4318 91.3058 16.0114H79.1973ZM87.4443 12.3889C86.9208 10.2154 85.2845 8.98376 83.3863 8.98376C81.3571 8.98376 79.7209 10.3603 79.1319 12.3889H87.4443Z" fill="#353535"/>
<path d="M108.913 22.7493H105.509V20.4309H105.444C104.462 21.9523 102.891 23.2564 100.404 23.2564C96.2805 23.2564 92.8115 19.4166 92.8115 14.2726C92.8115 8.91134 96.2805 5.14394 100.535 5.14394C103.349 5.14394 104.724 6.88275 105.182 7.46236H105.247V0H108.913V22.7493ZM96.5424 14.2002C96.5424 17.1706 98.3748 19.4166 100.993 19.4166C103.611 19.4166 105.509 17.2431 105.509 14.2002C105.509 11.1573 103.611 8.98378 100.993 8.98378C98.5058 9.05626 96.5424 11.0848 96.5424 14.2002Z" fill="#353535"/>
<path d="M126.585 22.7493H123.181V20.4309H123.116C121.348 23.1115 118.796 23.2564 118.01 23.2564C114.083 23.2564 110.483 19.8513 110.483 14.3451C110.483 8.98376 113.887 5.14392 118.141 5.14392C120.301 5.14392 122.068 6.15821 123.181 8.11439H123.247V5.72353H126.65L126.585 22.7493ZM114.149 14.3451C114.149 17.2431 115.981 19.3441 118.665 19.3441C121.283 19.3441 123.05 17.2431 123.05 14.1277C123.05 11.1573 121.283 8.98376 118.665 8.98376C116.047 9.05624 114.149 11.3022 114.149 14.3451Z" fill="#353535"/>
<path d="M132.017 16.0114C132.475 18.1125 134.046 19.4166 136.01 19.4166C137.188 19.4166 138.562 19.0543 139.479 17.8227H143.668C141.638 23.2564 136.926 23.2564 136.206 23.2564C130.708 23.2564 128.09 18.2574 128.09 14.3451C128.09 10.4328 130.708 5.14392 136.271 5.14392C140.984 5.14392 144.191 9.12868 144.191 14.2002C144.191 14.7798 144.191 15.4318 144.126 16.0114H132.017ZM140.264 12.3889C139.74 10.2154 138.104 8.98376 136.206 8.98376C134.177 8.98376 132.541 10.3603 131.951 12.3889H140.264Z" fill="#353535"/>
<path d="M146.22 5.72353H149.624V7.24499H149.689C150.409 5.79597 151.784 4.99904 153.224 5.14393V9.12869C149.885 9.12869 149.951 12.6063 149.951 13.5481V22.7493H146.286L146.22 5.72353Z" fill="#353535"/>
<path d="M169.914 14.2726C169.914 19.1992 166.445 23.3289 161.733 23.3289C157.02 23.3289 153.551 19.2717 153.551 14.2726C153.551 9.2736 157.02 5.21639 161.733 5.21639C166.51 5.14395 169.914 9.2736 169.914 14.2726ZM157.347 14.2726C157.347 17.0257 159.114 19.4166 161.798 19.4166C164.547 19.4166 166.249 17.0257 166.249 14.2726C166.249 11.5195 164.547 9.05624 161.798 9.05624C159.049 9.05624 157.347 11.4471 157.347 14.2726Z" fill="#353535"/>
<path d="M18.7192 3.40518C12.3049 -0.434668 4.51604 1.15923 1.30887 6.73786C-0.916508 10.6502 -0.261984 15.4319 2.42156 19.3442L11.3885 10.3604L7.33049 7.96952L17.2138 6.01337L20.4864 15.7217L16.3629 13.2584L13.2867 25.7198C17.9338 26.1545 22.3191 24.3432 24.5444 20.4309C27.7516 14.8523 25.1335 7.17258 18.7192 3.40518Z" fill="#1976E0"/>
</g>
</g>
<defs>
<clipPath id="clip0_47_25">
<rect width="170" height="26" fill="white"/>
</clipPath>
</defs>
</svg>
